<?xml version="1.0" encoding="utf-8"?><svg version="1.1" id="Layer_1" xmlns="http://www.w3.org/2000/svg" xmlns:xlink="http://www.w3.org/1999/xlink" x="0px" y="0px" viewBox="0 0 114.59 122.88" style="enable-background:new 0 0 114.59 122.88" xml:space="preserve"><g><path d="M59.74,26.24c-1.04,0.75-2,1.76-2.83,3.07c-0.04,0.07-0.1,0.12-0.16,0.16c-0.26,0.16-0.61,0.09-0.77-0.16 c-0.84-1.31-1.8-2.32-2.83-3.07c-1.11-0.81-2.32-1.32-3.56-1.57h-0.02c-1.21-0.25-2.45-0.25-3.64-0.04 c-1.26,0.22-2.48,0.68-3.57,1.32c-1.09,0.63-2.07,1.45-2.88,2.39c-0.79,0.91-1.42,1.96-1.84,3.08l0,0 c-0.07,0.17-0.13,0.36-0.18,0.55c-0.05,0.17-0.11,0.37-0.14,0.56c-0.05,0.25-0.26,0.43-0.53,0.44c-1.29,0.19-2.57,0.66-3.76,1.36 c-1.21,0.72-2.34,1.7-3.31,2.87c-0.96,1.17-1.77,2.56-2.34,4.09c-0.54,1.44-0.86,3.03-0.93,4.71c-0.01,0.22-0.01,0.43-0.01,0.65 c0,0.2,0.01,0.41,0.01,0.63c0.01,0.18-0.07,0.37-0.23,0.49c-0.79,0.57-1.5,1.15-2.13,1.76c-0.64,0.62-1.21,1.27-1.7,1.93 c-0.8,1.09-1.38,2.22-1.78,3.36c-0.41,1.19-0.61,2.41-0.63,3.61c-0.01,1.15,0.14,2.3,0.47,3.4c0.33,1.12,0.83,2.22,1.47,3.24l0,0 c0.37,0.59,0.78,1.16,1.23,1.7c0.46,0.55,0.96,1.07,1.5,1.56c0.13,0.13,0.21,0.33,0.17,0.52c-0.15,0.73-0.23,1.45-0.26,2.16 c-0.02,0.73,0.02,1.45,0.12,2.15c0.18,1.29,0.56,2.52,1.09,3.65c0.56,1.21,1.29,2.32,2.13,3.29c0.24,0.28,0.5,0.56,0.76,0.82 l1.17-4.39c-0.25-0.38-0.47-0.78-0.66-1.2c-0.38-0.82-0.65-1.69-0.79-2.6v-0.02c-0.1-0.67-0.12-1.37-0.04-2.09 c0.07-0.67,0.21-1.37,0.45-2.07l0.01-0.03c0.13-0.39,0.12-0.81,0.01-1.17l-0.01-0.02c-0.13-0.38-0.37-0.72-0.72-0.96l-0.02-0.02 c-0.61-0.46-1.17-0.95-1.66-1.49c-0.5-0.54-0.94-1.11-1.31-1.71c-0.44-0.72-0.79-1.49-1.02-2.28c-0.22-0.77-0.34-1.56-0.33-2.36 c0.01-0.82,0.15-1.65,0.44-2.47c0.28-0.78,0.68-1.56,1.24-2.32c0.47-0.64,1.05-1.28,1.74-1.88c0.66-0.59,1.41-1.14,2.28-1.67 c0.32-0.19,0.55-0.46,0.7-0.77l0.01-0.03c0.15-0.32,0.21-0.67,0.16-1.03c-0.01-0.04-0.01-0.08-0.01-0.12v-0.02 c-0.05-0.34-0.08-0.67-0.1-1c-0.02-0.36-0.02-0.71-0.01-1.06c0.05-1.26,0.29-2.44,0.68-3.51c0.42-1.14,1.02-2.17,1.73-3.05 c0.59-0.72,1.26-1.33,1.96-1.8c0.7-0.47,1.44-0.81,2.2-1l0,0c0.29-0.09,0.61,0.08,0.69,0.37c0.6,1.88,1.35,3.07,2.78,4.4l0.06,0.05 c0.36,0.33,0.82,0.48,1.27,0.46c0.45-0.02,0.89-0.2,1.22-0.56l0.03-0.04c0.33-0.36,0.48-0.82,0.46-1.27 c-0.02-0.45-0.21-0.9-0.58-1.25c-1.15-1.07-1.41-1.73-1.76-2.81c-0.4-1.24-0.34-2.45,0.06-3.53c0.27-0.74,0.69-1.43,1.23-2.04 c0.53-0.61,1.17-1.14,1.88-1.56l0.03-0.02c0.73-0.42,1.52-0.73,2.34-0.88c0.78-0.14,1.58-0.15,2.35,0.01 c1.1,0.23,2.17,0.81,3.12,1.81c0.84,0.87,1.58,2.09,2.16,3.68l0.01,0.02c0.2,0.62,0.86,0.99,1.62,1.13 c0.35,0.07,0.71,0.09,1.07,0.07h0.01c0.36-0.02,0.71-0.09,1.04-0.19c0.58-0.19,1.03-0.5,1.13-0.89v-0.22c0-1.11,0.66-2.3,1.58-3.27 c1-1.06,2.33-1.89,3.46-2.12c0.71-0.14,1.43-0.15,2.13-0.05c0.73,0.12,1.44,0.35,2.11,0.68l0.06,0.02 c0.68,0.35,1.31,0.79,1.85,1.31c0.54,0.52,1,1.11,1.35,1.75c0.55,1.01,0.8,2.16,0.62,3.38c-0.15,1.07-0.19,1.74-1.09,2.81 l-0.01,0.01c-0.32,0.37-0.45,0.85-0.41,1.31c0.04,0.44,0.24,0.87,0.6,1.18l0.06,0.05c0.37,0.31,0.84,0.43,1.29,0.39 c0.44-0.04,0.87-0.24,1.18-0.6l0.05-0.07c0.92-1.1,1.22-1.9,1.64-3.29l0,0c0.07-0.21,0.26-0.37,0.5-0.39 c0.4-0.03,0.82-0.01,1.23,0.06c0.42,0.07,0.85,0.17,1.27,0.32c0.8,0.27,1.6,0.68,2.34,1.2c0.73,0.51,1.42,1.13,2.02,1.85l0.01,0.02 c0.62,0.74,1.15,1.57,1.55,2.47c0.37,0.85,0.62,1.75,0.73,2.7c0.07,0.63,0.07,1.3-0.01,1.97c-0.07,0.62-0.21,1.27-0.43,1.91 l-0.01,0.04c-0.13,0.4-0.12,0.83,0,1.2c0.13,0.38,0.38,0.73,0.74,0.96l0.03,0.02c0.67,0.5,1.27,1.05,1.79,1.62 c0.54,0.59,1,1.22,1.38,1.87c0.42,0.72,0.75,1.47,0.95,2.24c0.21,0.76,0.31,1.53,0.28,2.29c-0.02,0.79-0.17,1.58-0.45,2.35 c-0.27,0.74-0.66,1.47-1.18,2.18l-0.01,0.01c-0.47,0.64-1.07,1.28-1.77,1.88c-0.67,0.58-1.45,1.12-2.34,1.65l-0.03,0.02 c-0.36,0.2-0.62,0.51-0.77,0.87c-0.15,0.36-0.2,0.75-0.12,1.13l0.01,0.08c0.16,1.27,0.11,2.49-0.09,3.62l2.21,4.95 c0.49-0.92,0.89-1.9,1.19-2.95c0.42-1.49,0.62-3.1,0.56-4.8c-0.02-0.19,0.07-0.38,0.24-0.5c0.83-0.57,1.56-1.16,2.21-1.77 c0.66-0.63,1.25-1.29,1.75-1.97l0,0c0.77-1.04,1.34-2.11,1.73-3.22c0.4-1.14,0.61-2.31,0.65-3.47c0.03-1.12-0.11-2.24-0.39-3.33 c-0.29-1.11-0.74-2.17-1.33-3.18l-0.02-0.02c-0.38-0.66-0.84-1.3-1.34-1.91c-0.5-0.62-1.07-1.19-1.67-1.74 c-0.14-0.12-0.22-0.33-0.18-0.53c0.13-0.66,0.22-1.33,0.25-1.98c0.03-0.66,0.01-1.32-0.06-1.96c-0.14-1.34-0.5-2.6-1.02-3.79 c-0.55-1.25-1.28-2.4-2.13-3.41c-0.83-0.98-1.78-1.84-2.8-2.55c-1.02-0.71-2.1-1.27-3.21-1.64l-0.03-0.01 c-0.59-0.2-1.18-0.35-1.77-0.44h-0.02c-0.58-0.1-1.15-0.13-1.72-0.13c-0.26,0.02-0.51-0.15-0.58-0.42 c-0.1-0.39-0.22-0.78-0.37-1.15c-0.15-0.38-0.33-0.76-0.53-1.13c-0.52-0.96-1.2-1.84-2-2.6c-0.82-0.78-1.75-1.44-2.75-1.95 c-1.03-0.52-2.15-0.88-3.31-1.05c-1.1-0.15-2.22-0.13-3.33,0.1C62.08,24.93,60.86,25.44,59.74,26.24L59.74,26.24L59.74,26.24z M47.78,91.85c-0.08-0.04-0.18-0.1-0.27-0.17c-1.09-0.86-2.29-1.84-3.33-2.68c-1.51-1.24-3.25-2.67-4.46-3.68 c-0.83-0.68-1.77-1.16-2.66-1.34c-0.58-0.1-1.09-0.1-1.51,0.06c-0.33,0.15-0.62,0.41-0.81,0.83c-0.25,0.56-0.37,1.34-0.31,2.42 c0.06,0.95,0.4,1.99,0.83,3c0.64,1.47,1.53,2.83,2.19,3.69c0.04,0.06,0.08,0.1,0.1,0.17l13.08,18.68c0.17,0.25,0.27,0.52,0.29,0.78 c0.27,2.15,0.73,3.78,1.39,4.79c0.5,0.74,1.11,1.11,1.92,1.09H74.8c1.28-0.02,2.44-0.39,3.51-1.14c1.18-0.81,2.23-2.07,3.2-3.76 c0.02-0.02,0.04-0.06,0.06-0.08c0.37-0.64,0.87-1.47,1.34-2.25c2.09-3.43,3.91-6.43,4.11-10.68l-0.12-5.86 c-0.02-0.08-0.02-0.17-0.02-0.25c0-0.08,0-0.64,0.02-1.39c0.04-3.89,0.1-8.68-3.45-9.27h-2.29c-0.02,1.09-0.08,2.21-0.15,3.28 c-0.06,0.97-0.12,1.88-0.12,2.77c0,0.95-0.76,1.72-1.72,1.72c-0.95,0-1.72-0.76-1.72-1.72c0-0.89,0.06-1.92,0.12-3 c0.23-3.66,0.5-7.85-2.42-8.36h-2.27c-0.12,0-0.25-0.02-0.37-0.04c0.02,1.32-0.06,2.68-0.15,4.01c-0.04,0.97-0.1,1.88-0.1,2.76 c0,0.95-0.76,1.72-1.72,1.72c-0.95,0-1.72-0.76-1.72-1.72c0-0.89,0.06-1.92,0.12-3c0.23-3.66,0.5-7.85-2.42-8.36h-2.27 c-0.17,0-0.31-0.02-0.45-0.06v6.67c0,0.95-0.76,1.72-1.72,1.72c-0.95,0-1.72-0.76-1.72-1.72V61.28c0-3-1.22-4.9-2.79-5.68 c-0.58-0.29-1.2-0.43-1.8-0.43c-0.6,0-1.22,0.15-1.8,0.43c-1.55,0.78-2.75,2.68-2.75,5.76v33.67c0,0.95-0.76,1.72-1.72,1.72 c-0.95,0-1.72-0.76-1.72-1.72v-3.18H47.78L47.78,91.85L47.78,91.85z M63.81,71.49c0.15-0.04,0.29-0.06,0.45-0.06h2.38 c0.12,0,0.27,0.02,0.39,0.04c3.16,0.5,4.59,2.34,5.17,4.73c0.23-0.1,0.48-0.17,0.73-0.17h2.38c0.12,0,0.27,0.02,0.39,0.04 c3.41,0.53,4.77,2.62,5.27,5.27c0.08-0.02,0.17-0.02,0.27-0.02h2.38c0.12,0,0.27,0.02,0.4,0.04c6.53,1.01,6.44,7.5,6.39,12.73v1.36 l0.15,6.03v0.18c-0.25,5.15-2.27,8.47-4.6,12.32c-0.4,0.64-0.78,1.3-1.32,2.21c-0.02,0.02-0.02,0.04-0.04,0.06 c-1.22,2.13-2.62,3.76-4.24,4.88c-1.64,1.14-3.45,1.72-5.43,1.74H54.32c-2.05,0.04-3.64-0.85-4.82-2.6 c-0.95-1.41-1.57-3.39-1.9-5.86L34.8,96.09l-0.07-0.06c-0.76-1.01-1.8-2.6-2.58-4.36c-0.58-1.32-1.01-2.75-1.11-4.16 c-0.1-1.67,0.12-3,0.6-4.05c0.58-1.3,1.53-2.15,2.67-2.6c1.06-0.43,2.25-0.5,3.45-0.25c1.44,0.29,2.93,1.01,4.19,2.07 c1.03,0.87,2.77,2.27,4.46,3.66l1.41,1.16V61.39c0-4.57,2.02-7.5,4.65-8.83c1.06-0.54,2.19-0.81,3.35-0.81 c1.16,0,2.29,0.27,3.34,0.81c2.62,1.32,4.69,4.27,4.69,8.76V71.5L63.81,71.49L63.81,71.49L63.81,71.49z M96.55,84.09 c-0.18-0.45-0.29-0.94-0.29-1.46c0-0.52,0.11-1.01,0.29-1.46c0.19-0.45,0.46-0.86,0.81-1.2l0.02-0.03 c0.19-0.19,0.41-0.37,0.65-0.52c0.13-0.08,0.26-0.15,0.4-0.22v-6.06h-7.46c0.01-0.39,0.01-0.79-0.01-1.19 c-0.02-0.22,0.08-0.44,0.27-0.57c0.77-0.53,1.47-1.08,2.1-1.64h6.78c0.47,0,0.89,0.19,1.2,0.5c0.31,0.31,0.5,0.73,0.5,1.2v7.82 c0.12,0.06,0.23,0.13,0.35,0.2c0.2,0.13,0.39,0.29,0.57,0.46l0.03,0.03c0.35,0.35,0.63,0.77,0.83,1.24 c0.18,0.45,0.29,0.94,0.29,1.46c0,0.5-0.1,0.98-0.28,1.43l-0.01,0.03c-0.19,0.47-0.48,0.88-0.83,1.24 c-0.35,0.35-0.77,0.63-1.24,0.83c-0.45,0.18-0.94,0.29-1.46,0.29c-0.51,0-1-0.11-1.46-0.29c-0.47-0.19-0.89-0.48-1.24-0.83 C97.03,84.98,96.75,84.56,96.55,84.09L96.55,84.09L96.55,84.09z M107.36,64.63H97.22c0.17-0.37,0.33-0.75,0.46-1.13 c0.27-0.75,0.46-1.51,0.58-2.27h9.1c0.07-0.13,0.13-0.25,0.21-0.37c0.14-0.23,0.32-0.44,0.5-0.62c0.36-0.36,0.77-0.63,1.24-0.83 c0.45-0.18,0.94-0.29,1.46-0.29c0.5,0,0.98,0.1,1.43,0.28l0.03,0.01c0.47,0.19,0.88,0.48,1.24,0.83c0.35,0.35,0.63,0.77,0.83,1.24 c0.18,0.45,0.29,0.94,0.29,1.46c0,0.51-0.11,1-0.29,1.46c-0.19,0.47-0.48,0.89-0.83,1.24c-0.35,0.35-0.77,0.63-1.24,0.83 c-0.45,0.18-0.94,0.29-1.46,0.29c-0.5,0-0.98-0.1-1.43-0.28l-0.03-0.01c-0.47-0.19-0.88-0.48-1.24-0.83 c-0.18-0.18-0.35-0.38-0.49-0.61L107.56,65C107.49,64.88,107.42,64.76,107.36,64.63L107.36,64.63L107.36,64.63z M110.58,55.33 H97.83c-0.33-1.08-0.79-2.12-1.36-3.12l-0.02-0.03c-0.05-0.09-0.1-0.16-0.14-0.25h12.59v-11.1c-0.1-0.06-0.19-0.12-0.29-0.18 c-0.19-0.13-0.37-0.28-0.53-0.44c-0.35-0.35-0.63-0.77-0.83-1.24c-0.18-0.45-0.29-0.94-0.29-1.46c0-0.51,0.11-1.01,0.29-1.46 c0.19-0.47,0.48-0.88,0.83-1.24c0.35-0.35,0.77-0.63,1.24-0.83c0.45-0.18,0.94-0.29,1.46-0.29c0.51,0,1,0.11,1.46,0.29 c0.47,0.19,0.89,0.48,1.24,0.83c0.35,0.35,0.63,0.77,0.83,1.24c0.18,0.45,0.29,0.94,0.29,1.46c0,0.5-0.1,0.98-0.28,1.43l-0.01,0.03 c-0.19,0.47-0.48,0.88-0.83,1.24c-0.21,0.21-0.46,0.4-0.72,0.57c-0.14,0.09-0.31,0.17-0.46,0.24v12.61c0,0.47-0.19,0.89-0.5,1.2 C111.48,55.14,111.06,55.33,110.58,55.33L110.58,55.33L110.58,55.33z M97.26,47.12h-4.34c0.12-0.63,0.18-1.27,0.21-1.9 c0.02-0.51,0.02-1.01-0.01-1.5h2.44v-5.02c-0.13-0.07-0.26-0.13-0.38-0.22c-0.23-0.14-0.44-0.32-0.64-0.52l0,0 c-0.35-0.35-0.63-0.77-0.83-1.24c-0.18-0.45-0.29-0.94-0.29-1.45c0-0.51,0.11-1,0.29-1.46c0.19-0.45,0.46-0.86,0.8-1.21l0.03-0.03 c0.35-0.35,0.77-0.63,1.24-0.83c0.45-0.18,0.94-0.29,1.46-0.29c0.52,0,1.01,0.11,1.46,0.29c0.45,0.19,0.86,0.46,1.21,0.81 l0.03,0.02c0.35,0.35,0.62,0.75,0.82,1.21l0.01,0.03c0.18,0.45,0.29,0.94,0.29,1.46c0,0.51-0.11,1.01-0.29,1.46 c-0.19,0.45-0.46,0.87-0.8,1.21l-0.03,0.03c-0.18,0.18-0.38,0.35-0.61,0.5c-0.12,0.08-0.23,0.14-0.36,0.2v6.75 c0,0.47-0.19,0.89-0.5,1.2C98.15,46.93,97.72,47.12,97.26,47.12L97.26,47.12L97.26,47.12z M29.91,18.04 c0.45,0.18,0.94,0.29,1.46,0.29c0.52,0,1.01-0.11,1.46-0.29c0.45-0.19,0.87-0.46,1.2-0.81l0.03-0.02c0.19-0.19,0.37-0.41,0.52-0.65 c0.08-0.13,0.15-0.26,0.22-0.4h6.06v5.24c1.07-0.57,2.22-0.98,3.4-1.22v-5.72c0-0.47-0.19-0.89-0.5-1.2 c-0.31-0.31-0.73-0.5-1.2-0.5h-7.82c-0.06-0.12-0.12-0.23-0.2-0.35c-0.13-0.2-0.29-0.39-0.46-0.57l-0.03-0.03 c-0.35-0.35-0.77-0.63-1.24-0.83c-0.45-0.18-0.94-0.29-1.46-0.29c-0.5,0-0.99,0.1-1.43,0.28l-0.03,0.01 c-0.47,0.19-0.88,0.48-1.24,0.83c-0.35,0.35-0.63,0.77-0.83,1.24c-0.18,0.45-0.29,0.94-0.29,1.46c0,0.51,0.11,1,0.29,1.46 c0.19,0.47,0.48,0.89,0.83,1.24C29.03,17.56,29.44,17.84,29.91,18.04L29.91,18.04L29.91,18.04z M49.38,7.24v13.13 c1.13,0.33,2.24,0.85,3.28,1.59l0.12,0.09c0-0.03,0.01-0.06,0.01-0.09V7.24c0.12-0.07,0.25-0.13,0.37-0.21 c0.23-0.14,0.44-0.32,0.62-0.5c0.35-0.36,0.63-0.77,0.83-1.24c0.18-0.45,0.29-0.94,0.29-1.46c0-0.5-0.1-0.98-0.28-1.43l-0.01-0.03 c-0.19-0.47-0.48-0.88-0.83-1.24c-0.35-0.35-0.77-0.63-1.24-0.83c-0.45-0.18-0.94-0.29-1.46-0.29c-0.51,0-1,0.11-1.46,0.29 c-0.47,0.19-0.89,0.48-1.24,0.83c-0.35,0.35-0.63,0.77-0.83,1.24c-0.18,0.45-0.29,0.94-0.29,1.46c0,0.5,0.1,0.98,0.28,1.43 l0.01,0.03c0.19,0.47,0.48,0.88,0.83,1.24c0.18,0.18,0.38,0.35,0.61,0.49l0.02,0.01C49.13,7.1,49.25,7.17,49.38,7.24L49.38,7.24 L49.38,7.24z M58.67,4.01v19.2c0.46-0.47,0.95-0.88,1.45-1.25c0.62-0.45,1.28-0.83,1.95-1.11V5.7h11.1 c0.06,0.1,0.12,0.19,0.18,0.29c0.13,0.19,0.28,0.37,0.44,0.53c0.35,0.35,0.77,0.63,1.24,0.83c0.45,0.18,0.94,0.29,1.46,0.29 c0.51,0,1.01-0.11,1.46-0.29c0.47-0.19,0.89-0.48,1.24-0.83c0.35-0.35,0.63-0.77,0.83-1.24c0.18-0.45,0.29-0.94,0.29-1.46 c0-0.51-0.11-1-0.29-1.46c-0.19-0.47-0.48-0.89-0.83-1.24c-0.37-0.35-0.79-0.63-1.26-0.83C77.49,0.11,77,0,76.49,0 c-0.5,0-0.98,0.1-1.43,0.28l-0.03,0.01c-0.47,0.19-0.88,0.48-1.24,0.83c-0.21,0.21-0.4,0.46-0.57,0.72 c-0.09,0.14-0.17,0.31-0.24,0.46H60.38c-0.47,0-0.89,0.19-1.2,0.5C58.87,3.11,58.67,3.54,58.67,4.01L58.67,4.01L58.67,4.01z M66.88,17.34v2.63c0.35,0.02,0.7,0.05,1.05,0.11c0.81,0.12,1.6,0.32,2.35,0.6v-1.62h5.02c0.07,0.13,0.13,0.26,0.22,0.38 c0.14,0.23,0.32,0.44,0.52,0.64l0,0c0.35,0.35,0.77,0.63,1.24,0.83c0.45,0.18,0.94,0.29,1.45,0.29c0.51,0,1-0.11,1.46-0.29 c0.45-0.19,0.87-0.46,1.21-0.8l0.03-0.03c0.35-0.35,0.63-0.77,0.83-1.24c0.18-0.45,0.29-0.94,0.29-1.46c0-0.52-0.11-1.01-0.29-1.46 c-0.19-0.45-0.46-0.87-0.81-1.21l-0.02-0.03c-0.35-0.35-0.75-0.62-1.21-0.82l-0.03-0.01c-0.45-0.18-0.94-0.29-1.46-0.29 c-0.51,0-1.01,0.11-1.46,0.29c-0.45,0.19-0.86,0.46-1.21,0.8l-0.03,0.03c-0.18,0.18-0.35,0.38-0.5,0.62 c-0.08,0.12-0.14,0.23-0.2,0.36h-6.75c-0.47,0-0.89,0.19-1.2,0.5C67.07,16.44,66.88,16.86,66.88,17.34L66.88,17.34L66.88,17.34z M18.04,33.82c0.18,0.45,0.29,0.94,0.29,1.46s-0.11,1.01-0.29,1.46c-0.19,0.45-0.46,0.86-0.81,1.2l-0.02,0.03 c-0.19,0.19-0.41,0.37-0.65,0.52c-0.13,0.08-0.26,0.15-0.4,0.22v6.06h6.29v0.3c0,0.23,0.01,0.47,0.02,0.72 c0.02,0.21-0.08,0.42-0.26,0.56c-0.83,0.59-1.57,1.2-2.24,1.83h-5.5c-0.47,0-0.89-0.19-1.2-0.5c-0.31-0.31-0.5-0.73-0.5-1.2v-7.82 c-0.12-0.06-0.23-0.13-0.35-0.2c-0.2-0.13-0.39-0.29-0.57-0.46l-0.03-0.03c-0.35-0.35-0.63-0.77-0.83-1.24 c-0.18-0.45-0.29-0.94-0.29-1.46c0-0.5,0.1-0.98,0.28-1.43L11,33.81c0.19-0.47,0.48-0.88,0.83-1.24c0.35-0.35,0.77-0.63,1.24-0.83 c0.45-0.18,0.94-0.29,1.46-0.29c0.51,0,1,0.11,1.46,0.29c0.47,0.19,0.89,0.48,1.24,0.83C17.56,32.93,17.84,33.35,18.04,33.82 L18.04,33.82L18.04,33.82z M7.24,53.28h9.03c-0.15,0.35-0.29,0.7-0.41,1.05c-0.27,0.78-0.46,1.56-0.58,2.34H7.24 c-0.07,0.13-0.13,0.25-0.21,0.37c-0.14,0.23-0.32,0.44-0.5,0.62c-0.36,0.36-0.77,0.63-1.24,0.83c-0.45,0.18-0.94,0.29-1.46,0.29 c-0.5,0-0.98-0.1-1.43-0.28L2.36,58.5c-0.47-0.19-0.88-0.48-1.24-0.83c-0.35-0.35-0.63-0.77-0.83-1.24 c-0.18-0.45-0.29-0.94-0.29-1.46c0-0.51,0.11-1,0.29-1.46c0.19-0.47,0.48-0.89,0.83-1.24c0.35-0.35,0.77-0.63,1.24-0.83 c0.45-0.18,0.94-0.29,1.46-0.29c0.5,0,0.98,0.1,1.43,0.28l0.03,0.01c0.47,0.19,0.88,0.48,1.24,0.83c0.18,0.18,0.35,0.38,0.49,0.61 l0.02,0.03C7.1,53.03,7.17,53.16,7.24,53.28L7.24,53.28L7.24,53.28z M4.01,62.59h11.75c0.37,1.16,0.89,2.29,1.57,3.35v0.01 l0.02,0.04H5.7v11.1c0.1,0.06,0.19,0.12,0.29,0.18c0.19,0.13,0.37,0.28,0.53,0.44c0.35,0.35,0.63,0.77,0.83,1.24 c0.18,0.45,0.29,0.94,0.29,1.46c0,0.51-0.11,1.01-0.29,1.46c-0.19,0.47-0.48,0.88-0.83,1.24c-0.35,0.35-0.77,0.63-1.24,0.83 c-0.45,0.18-0.94,0.29-1.46,0.29c-0.51,0-1-0.11-1.46-0.29c-0.47-0.19-0.89-0.48-1.24-0.83c-0.35-0.37-0.63-0.8-0.83-1.26 C0.11,81.4,0,80.91,0,80.39c0-0.5,0.1-0.98,0.28-1.43l0.01-0.03c0.19-0.47,0.48-0.88,0.83-1.24c0.21-0.21,0.46-0.4,0.72-0.57 c0.14-0.09,0.31-0.17,0.46-0.24V64.28c0-0.47,0.19-0.89,0.5-1.2C3.11,62.78,3.54,62.59,4.01,62.59L4.01,62.59L4.01,62.59z M17.34,70.79h3.17c-0.11,0.63-0.16,1.26-0.18,1.87c-0.02,0.52-0.01,1.03,0.03,1.53h-1.32v5.02c0.13,0.07,0.26,0.13,0.38,0.22 c0.23,0.14,0.44,0.32,0.64,0.52l0,0c0.35,0.35,0.63,0.77,0.83,1.24c0.18,0.45,0.29,0.94,0.29,1.46c0,0.52-0.11,1-0.29,1.46 c-0.19,0.45-0.46,0.86-0.8,1.21l-0.03,0.03c-0.35,0.35-0.77,0.63-1.24,0.83c-0.45,0.18-0.94,0.29-1.46,0.29 c-0.52,0-1.01-0.11-1.46-0.29c-0.45-0.19-0.86-0.46-1.21-0.81l-0.03-0.02c-0.35-0.35-0.62-0.75-0.82-1.21l-0.01-0.03 c-0.18-0.45-0.29-0.94-0.29-1.46c0-0.51,0.11-1.01,0.29-1.46c0.19-0.45,0.46-0.86,0.8-1.21l0.03-0.03c0.18-0.18,0.38-0.35,0.61-0.5 c0.12-0.08,0.23-0.14,0.36-0.2V72.5c0-0.47,0.19-0.89,0.5-1.2C16.44,70.97,16.86,70.79,17.34,70.79L17.34,70.79L17.34,70.79z"/></g></svg>